<mxfile host="app.diagrams.net" modified="2023-10-12T01:22:19.968Z" agent="Mozilla/5.0 (Windows NT 10.0; Win64; x64) AppleWebKit/537.36 (KHTML, like Gecko) Chrome/117.0.0.0 Safari/537.36" etag="AQCQRBLhARjzZ6NrXLLZ" version="22.0.4" type="device">
  <diagram id="C5RBs43oDa-KdzZeNtuy" name="Page-1">
    <mxGraphModel dx="2227" dy="1881" grid="1" gridSize="10" guides="1" tooltips="1" connect="1" arrows="1" fold="1" page="1" pageScale="1" pageWidth="827" pageHeight="1169" math="0" shadow="0">
      <root>
        <mxCell id="WIyWlLk6GJQsqaUBKTNV-0" />
        <mxCell id="WIyWlLk6GJQsqaUBKTNV-1" parent="WIyWlLk6GJQsqaUBKTNV-0" />
        <mxCell id="95qn9z1AVTuWu9RTup_X-8" value="Buffer" style="swimlane;fontStyle=1;align=center;verticalAlign=top;childLayout=stackLayout;horizontal=1;startSize=26;horizontalStack=0;resizeParent=1;resizeParentMax=0;resizeLast=0;collapsible=1;marginBottom=0;whiteSpace=wrap;html=1;" vertex="1" parent="WIyWlLk6GJQsqaUBKTNV-1">
          <mxGeometry x="500" y="-90" width="310" height="424" as="geometry">
            <mxRectangle x="510" y="260" width="80" height="30" as="alternateBounds" />
          </mxGeometry>
        </mxCell>
        <mxCell id="95qn9z1AVTuWu9RTup_X-12" value="+m_writeIndex: uint32" style="text;strokeColor=none;fillColor=none;align=left;verticalAlign=top;spacingLeft=4;spacingRight=4;overflow=hidden;rotatable=0;points=[[0,0.5],[1,0.5]];portConstraint=eastwest;whiteSpace=wrap;html=1;" vertex="1" parent="95qn9z1AVTuWu9RTup_X-8">
          <mxGeometry y="26" width="310" height="26" as="geometry" />
        </mxCell>
        <mxCell id="95qn9z1AVTuWu9RTup_X-13" value="+m_readIndex: uint32" style="text;strokeColor=none;fillColor=none;align=left;verticalAlign=top;spacingLeft=4;spacingRight=4;overflow=hidden;rotatable=0;points=[[0,0.5],[1,0.5]];portConstraint=eastwest;whiteSpace=wrap;html=1;" vertex="1" parent="95qn9z1AVTuWu9RTup_X-8">
          <mxGeometry y="52" width="310" height="26" as="geometry" />
        </mxCell>
        <mxCell id="95qn9z1AVTuWu9RTup_X-10" value="" style="line;strokeWidth=1;fillColor=none;align=left;verticalAlign=middle;spacingTop=-1;spacingLeft=3;spacingRight=3;rotatable=0;labelPosition=right;points=[];portConstraint=eastwest;strokeColor=inherit;" vertex="1" parent="95qn9z1AVTuWu9RTup_X-8">
          <mxGeometry y="78" width="310" height="8" as="geometry" />
        </mxCell>
        <mxCell id="95qn9z1AVTuWu9RTup_X-9" value="+ vecBufferData: vector&amp;lt;uint8&amp;gt;&amp;nbsp;" style="text;strokeColor=none;fillColor=none;align=left;verticalAlign=top;spacingLeft=4;spacingRight=4;overflow=hidden;rotatable=0;points=[[0,0.5],[1,0.5]];portConstraint=eastwest;whiteSpace=wrap;html=1;" vertex="1" parent="95qn9z1AVTuWu9RTup_X-8">
          <mxGeometry y="86" width="310" height="26" as="geometry" />
        </mxCell>
        <mxCell id="95qn9z1AVTuWu9RTup_X-11" value="+ WriteUInt32LE(uint32 index, uint32 value): void" style="text;strokeColor=none;fillColor=none;align=left;verticalAlign=top;spacingLeft=4;spacingRight=4;overflow=hidden;rotatable=0;points=[[0,0.5],[1,0.5]];portConstraint=eastwest;whiteSpace=wrap;html=1;" vertex="1" parent="95qn9z1AVTuWu9RTup_X-8">
          <mxGeometry y="112" width="310" height="26" as="geometry" />
        </mxCell>
        <mxCell id="95qn9z1AVTuWu9RTup_X-14" value="+ WriteUInt16LE(uint32 index, uint16 value): void" style="text;strokeColor=none;fillColor=none;align=left;verticalAlign=top;spacingLeft=4;spacingRight=4;overflow=hidden;rotatable=0;points=[[0,0.5],[1,0.5]];portConstraint=eastwest;whiteSpace=wrap;html=1;" vertex="1" parent="95qn9z1AVTuWu9RTup_X-8">
          <mxGeometry y="138" width="310" height="26" as="geometry" />
        </mxCell>
        <mxCell id="95qn9z1AVTuWu9RTup_X-15" value="+ WriteString(uint32 index, string value): void" style="text;strokeColor=none;fillColor=none;align=left;verticalAlign=top;spacingLeft=4;spacingRight=4;overflow=hidden;rotatable=0;points=[[0,0.5],[1,0.5]];portConstraint=eastwest;whiteSpace=wrap;html=1;" vertex="1" parent="95qn9z1AVTuWu9RTup_X-8">
          <mxGeometry y="164" width="310" height="26" as="geometry" />
        </mxCell>
        <mxCell id="95qn9z1AVTuWu9RTup_X-19" value="+ WriteUInt32LE(uint32 value): void" style="text;strokeColor=none;fillColor=none;align=left;verticalAlign=top;spacingLeft=4;spacingRight=4;overflow=hidden;rotatable=0;points=[[0,0.5],[1,0.5]];portConstraint=eastwest;whiteSpace=wrap;html=1;" vertex="1" parent="95qn9z1AVTuWu9RTup_X-8">
          <mxGeometry y="190" width="310" height="26" as="geometry" />
        </mxCell>
        <mxCell id="95qn9z1AVTuWu9RTup_X-20" value="+ WriteUInt16LE(uint16 value): void" style="text;strokeColor=none;fillColor=none;align=left;verticalAlign=top;spacingLeft=4;spacingRight=4;overflow=hidden;rotatable=0;points=[[0,0.5],[1,0.5]];portConstraint=eastwest;whiteSpace=wrap;html=1;" vertex="1" parent="95qn9z1AVTuWu9RTup_X-8">
          <mxGeometry y="216" width="310" height="26" as="geometry" />
        </mxCell>
        <mxCell id="95qn9z1AVTuWu9RTup_X-21" value="+ WriteString(string value): void" style="text;strokeColor=none;fillColor=none;align=left;verticalAlign=top;spacingLeft=4;spacingRight=4;overflow=hidden;rotatable=0;points=[[0,0.5],[1,0.5]];portConstraint=eastwest;whiteSpace=wrap;html=1;" vertex="1" parent="95qn9z1AVTuWu9RTup_X-8">
          <mxGeometry y="242" width="310" height="26" as="geometry" />
        </mxCell>
        <mxCell id="95qn9z1AVTuWu9RTup_X-16" value="+ ReadUInt32LE(uint32 index): uint16" style="text;strokeColor=none;fillColor=none;align=left;verticalAlign=top;spacingLeft=4;spacingRight=4;overflow=hidden;rotatable=0;points=[[0,0.5],[1,0.5]];portConstraint=eastwest;whiteSpace=wrap;html=1;" vertex="1" parent="95qn9z1AVTuWu9RTup_X-8">
          <mxGeometry y="268" width="310" height="26" as="geometry" />
        </mxCell>
        <mxCell id="95qn9z1AVTuWu9RTup_X-17" value="+ ReadUInt16LE(uint32 index): uint16" style="text;strokeColor=none;fillColor=none;align=left;verticalAlign=top;spacingLeft=4;spacingRight=4;overflow=hidden;rotatable=0;points=[[0,0.5],[1,0.5]];portConstraint=eastwest;whiteSpace=wrap;html=1;" vertex="1" parent="95qn9z1AVTuWu9RTup_X-8">
          <mxGeometry y="294" width="310" height="26" as="geometry" />
        </mxCell>
        <mxCell id="95qn9z1AVTuWu9RTup_X-18" value="+ ReadString(uint32 index): string" style="text;strokeColor=none;fillColor=none;align=left;verticalAlign=top;spacingLeft=4;spacingRight=4;overflow=hidden;rotatable=0;points=[[0,0.5],[1,0.5]];portConstraint=eastwest;whiteSpace=wrap;html=1;" vertex="1" parent="95qn9z1AVTuWu9RTup_X-8">
          <mxGeometry y="320" width="310" height="26" as="geometry" />
        </mxCell>
        <mxCell id="95qn9z1AVTuWu9RTup_X-22" value="+ ReadUInt32LE(): uint16" style="text;strokeColor=none;fillColor=none;align=left;verticalAlign=top;spacingLeft=4;spacingRight=4;overflow=hidden;rotatable=0;points=[[0,0.5],[1,0.5]];portConstraint=eastwest;whiteSpace=wrap;html=1;" vertex="1" parent="95qn9z1AVTuWu9RTup_X-8">
          <mxGeometry y="346" width="310" height="26" as="geometry" />
        </mxCell>
        <mxCell id="95qn9z1AVTuWu9RTup_X-23" value="+ ReadUInt16LE(): uint16" style="text;strokeColor=none;fillColor=none;align=left;verticalAlign=top;spacingLeft=4;spacingRight=4;overflow=hidden;rotatable=0;points=[[0,0.5],[1,0.5]];portConstraint=eastwest;whiteSpace=wrap;html=1;" vertex="1" parent="95qn9z1AVTuWu9RTup_X-8">
          <mxGeometry y="372" width="310" height="26" as="geometry" />
        </mxCell>
        <mxCell id="95qn9z1AVTuWu9RTup_X-24" value="+ ReadString(): string" style="text;strokeColor=none;fillColor=none;align=left;verticalAlign=top;spacingLeft=4;spacingRight=4;overflow=hidden;rotatable=0;points=[[0,0.5],[1,0.5]];portConstraint=eastwest;whiteSpace=wrap;html=1;" vertex="1" parent="95qn9z1AVTuWu9RTup_X-8">
          <mxGeometry y="398" width="310" height="26" as="geometry" />
        </mxCell>
        <mxCell id="95qn9z1AVTuWu9RTup_X-25" value="TCPBase" style="swimlane;fontStyle=1;align=center;verticalAlign=top;childLayout=stackLayout;horizontal=1;startSize=26;horizontalStack=0;resizeParent=1;resizeParentMax=0;resizeLast=0;collapsible=1;marginBottom=0;whiteSpace=wrap;html=1;" vertex="1" parent="WIyWlLk6GJQsqaUBKTNV-1">
          <mxGeometry x="-190" y="245" width="620" height="294" as="geometry" />
        </mxCell>
        <mxCell id="95qn9z1AVTuWu9RTup_X-26" value="- SOCKET m_serverSocket" style="text;strokeColor=none;fillColor=none;align=left;verticalAlign=top;spacingLeft=4;spacingRight=4;overflow=hidden;rotatable=0;points=[[0,0.5],[1,0.5]];portConstraint=eastwest;whiteSpace=wrap;html=1;" vertex="1" parent="95qn9z1AVTuWu9RTup_X-25">
          <mxGeometry y="26" width="620" height="26" as="geometry" />
        </mxCell>
        <mxCell id="95qn9z1AVTuWu9RTup_X-29" value="- addrinfo* m_pInfo" style="text;strokeColor=none;fillColor=none;align=left;verticalAlign=top;spacingLeft=4;spacingRight=4;overflow=hidden;rotatable=0;points=[[0,0.5],[1,0.5]];portConstraint=eastwest;whiteSpace=wrap;html=1;" vertex="1" parent="95qn9z1AVTuWu9RTup_X-25">
          <mxGeometry y="52" width="620" height="26" as="geometry" />
        </mxCell>
        <mxCell id="95qn9z1AVTuWu9RTup_X-27" value="" style="line;strokeWidth=1;fillColor=none;align=left;verticalAlign=middle;spacingTop=-1;spacingLeft=3;spacingRight=3;rotatable=0;labelPosition=right;points=[];portConstraint=eastwest;strokeColor=inherit;" vertex="1" parent="95qn9z1AVTuWu9RTup_X-25">
          <mxGeometry y="78" width="620" height="8" as="geometry" />
        </mxCell>
        <mxCell id="95qn9z1AVTuWu9RTup_X-28" value="+ Initialize(const char* host, const char* port): bool" style="text;strokeColor=none;fillColor=none;align=left;verticalAlign=top;spacingLeft=4;spacingRight=4;overflow=hidden;rotatable=0;points=[[0,0.5],[1,0.5]];portConstraint=eastwest;whiteSpace=wrap;html=1;" vertex="1" parent="95qn9z1AVTuWu9RTup_X-25">
          <mxGeometry y="86" width="620" height="26" as="geometry" />
        </mxCell>
        <mxCell id="95qn9z1AVTuWu9RTup_X-30" value="+ Destroy(): void" style="text;strokeColor=none;fillColor=none;align=left;verticalAlign=top;spacingLeft=4;spacingRight=4;overflow=hidden;rotatable=0;points=[[0,0.5],[1,0.5]];portConstraint=eastwest;whiteSpace=wrap;html=1;" vertex="1" parent="95qn9z1AVTuWu9RTup_X-25">
          <mxGeometry y="112" width="620" height="26" as="geometry" />
        </mxCell>
        <mxCell id="95qn9z1AVTuWu9RTup_X-105" value="+ GeSocket(): const SOCKET&amp;amp;" style="text;strokeColor=none;fillColor=none;align=left;verticalAlign=top;spacingLeft=4;spacingRight=4;overflow=hidden;rotatable=0;points=[[0,0.5],[1,0.5]];portConstraint=eastwest;whiteSpace=wrap;html=1;" vertex="1" parent="95qn9z1AVTuWu9RTup_X-25">
          <mxGeometry y="138" width="620" height="26" as="geometry" />
        </mxCell>
        <mxCell id="95qn9z1AVTuWu9RTup_X-84" value="+ StartListening(): void" style="text;strokeColor=none;fillColor=none;align=left;verticalAlign=top;spacingLeft=4;spacingRight=4;overflow=hidden;rotatable=0;points=[[0,0.5],[1,0.5]];portConstraint=eastwest;whiteSpace=wrap;html=1;" vertex="1" parent="95qn9z1AVTuWu9RTup_X-25">
          <mxGeometry y="164" width="620" height="26" as="geometry" />
        </mxCell>
        <mxCell id="95qn9z1AVTuWu9RTup_X-45" value="+ SendRequest(const SOCKET&amp;amp; destSocket, const MSG_TYPE&amp;amp; msgType, const string&amp;amp; msg): void" style="text;strokeColor=none;fillColor=none;align=left;verticalAlign=top;spacingLeft=4;spacingRight=4;overflow=hidden;rotatable=0;points=[[0,0.5],[1,0.5]];portConstraint=eastwest;whiteSpace=wrap;html=1;" vertex="1" parent="95qn9z1AVTuWu9RTup_X-25">
          <mxGeometry y="190" width="620" height="26" as="geometry" />
        </mxCell>
        <mxCell id="95qn9z1AVTuWu9RTup_X-44" value="+ SerializeBuffer(const MSG_TYPE&amp;amp; msgType, const string&amp;amp; msg, Buffer* bufferOut, int&amp;amp; packetSizeOut): void" style="text;strokeColor=none;fillColor=none;align=left;verticalAlign=top;spacingLeft=4;spacingRight=4;overflow=hidden;rotatable=0;points=[[0,0.5],[1,0.5]];portConstraint=eastwest;whiteSpace=wrap;html=1;" vertex="1" parent="95qn9z1AVTuWu9RTup_X-25">
          <mxGeometry y="216" width="620" height="26" as="geometry" />
        </mxCell>
        <mxCell id="95qn9z1AVTuWu9RTup_X-70" value="+ ReceiveRequest(const SOCKET&amp;amp; origSocket, MSG_TYPE&amp;amp; msgTypeOut, std::string&amp;amp; msgOut): void" style="text;strokeColor=none;fillColor=none;align=left;verticalAlign=top;spacingLeft=4;spacingRight=4;overflow=hidden;rotatable=0;points=[[0,0.5],[1,0.5]];portConstraint=eastwest;whiteSpace=wrap;html=1;" vertex="1" parent="95qn9z1AVTuWu9RTup_X-25">
          <mxGeometry y="242" width="620" height="26" as="geometry" />
        </mxCell>
        <mxCell id="95qn9z1AVTuWu9RTup_X-69" value="+ DeserializeBuffer(Buffer&amp;amp; buffer, MSG_TYPE&amp;amp; msgTypeOut, string&amp;amp; msgOut): void" style="text;strokeColor=none;fillColor=none;align=left;verticalAlign=top;spacingLeft=4;spacingRight=4;overflow=hidden;rotatable=0;points=[[0,0.5],[1,0.5]];portConstraint=eastwest;whiteSpace=wrap;html=1;" vertex="1" parent="95qn9z1AVTuWu9RTup_X-25">
          <mxGeometry y="268" width="620" height="26" as="geometry" />
        </mxCell>
        <mxCell id="95qn9z1AVTuWu9RTup_X-32" value="ChatClient" style="swimlane;fontStyle=1;align=center;verticalAlign=top;childLayout=stackLayout;horizontal=1;startSize=26;horizontalStack=0;resizeParent=1;resizeParentMax=0;resizeLast=0;collapsible=1;marginBottom=0;whiteSpace=wrap;html=1;" vertex="1" parent="WIyWlLk6GJQsqaUBKTNV-1">
          <mxGeometry x="-487.5" y="850" width="425" height="242" as="geometry" />
        </mxCell>
        <mxCell id="95qn9z1AVTuWu9RTup_X-33" value="- uint32 m_idRoom" style="text;strokeColor=none;fillColor=none;align=left;verticalAlign=top;spacingLeft=4;spacingRight=4;overflow=hidden;rotatable=0;points=[[0,0.5],[1,0.5]];portConstraint=eastwest;whiteSpace=wrap;html=1;" vertex="1" parent="95qn9z1AVTuWu9RTup_X-32">
          <mxGeometry y="26" width="425" height="26" as="geometry" />
        </mxCell>
        <mxCell id="95qn9z1AVTuWu9RTup_X-123" value="- string m_username" style="text;strokeColor=none;fillColor=none;align=left;verticalAlign=top;spacingLeft=4;spacingRight=4;overflow=hidden;rotatable=0;points=[[0,0.5],[1,0.5]];portConstraint=eastwest;whiteSpace=wrap;html=1;" vertex="1" parent="95qn9z1AVTuWu9RTup_X-32">
          <mxGeometry y="52" width="425" height="26" as="geometry" />
        </mxCell>
        <mxCell id="95qn9z1AVTuWu9RTup_X-82" value="- TCPClient* pTCP" style="text;strokeColor=none;fillColor=none;align=left;verticalAlign=top;spacingLeft=4;spacingRight=4;overflow=hidden;rotatable=0;points=[[0,0.5],[1,0.5]];portConstraint=eastwest;whiteSpace=wrap;html=1;" vertex="1" parent="95qn9z1AVTuWu9RTup_X-32">
          <mxGeometry y="78" width="425" height="26" as="geometry" />
        </mxCell>
        <mxCell id="95qn9z1AVTuWu9RTup_X-35" value="" style="line;strokeWidth=1;fillColor=none;align=left;verticalAlign=middle;spacingTop=-1;spacingLeft=3;spacingRight=3;rotatable=0;labelPosition=right;points=[];portConstraint=eastwest;strokeColor=inherit;" vertex="1" parent="95qn9z1AVTuWu9RTup_X-32">
          <mxGeometry y="104" width="425" height="8" as="geometry" />
        </mxCell>
        <mxCell id="95qn9z1AVTuWu9RTup_X-36" value="+ Initialize(const char* host, const char* port): bool" style="text;strokeColor=none;fillColor=none;align=left;verticalAlign=top;spacingLeft=4;spacingRight=4;overflow=hidden;rotatable=0;points=[[0,0.5],[1,0.5]];portConstraint=eastwest;whiteSpace=wrap;html=1;" vertex="1" parent="95qn9z1AVTuWu9RTup_X-32">
          <mxGeometry y="112" width="425" height="26" as="geometry" />
        </mxCell>
        <mxCell id="95qn9z1AVTuWu9RTup_X-37" value="+ Destroy(): void" style="text;strokeColor=none;fillColor=none;align=left;verticalAlign=top;spacingLeft=4;spacingRight=4;overflow=hidden;rotatable=0;points=[[0,0.5],[1,0.5]];portConstraint=eastwest;whiteSpace=wrap;html=1;" vertex="1" parent="95qn9z1AVTuWu9RTup_X-32">
          <mxGeometry y="138" width="425" height="26" as="geometry" />
        </mxCell>
        <mxCell id="95qn9z1AVTuWu9RTup_X-43" value="+ SendChatMessage(const string&amp;amp; msg): void" style="text;strokeColor=none;fillColor=none;align=left;verticalAlign=top;spacingLeft=4;spacingRight=4;overflow=hidden;rotatable=0;points=[[0,0.5],[1,0.5]];portConstraint=eastwest;whiteSpace=wrap;html=1;" vertex="1" parent="95qn9z1AVTuWu9RTup_X-32">
          <mxGeometry y="164" width="425" height="26" as="geometry" />
        </mxCell>
        <mxCell id="95qn9z1AVTuWu9RTup_X-41" value="+ JoinRoom(uint32 idRoom, string username, string&amp;amp; errorMsgOut): void" style="text;strokeColor=none;fillColor=none;align=left;verticalAlign=top;spacingLeft=4;spacingRight=4;overflow=hidden;rotatable=0;points=[[0,0.5],[1,0.5]];portConstraint=eastwest;whiteSpace=wrap;html=1;" vertex="1" parent="95qn9z1AVTuWu9RTup_X-32">
          <mxGeometry y="190" width="425" height="26" as="geometry" />
        </mxCell>
        <mxCell id="95qn9z1AVTuWu9RTup_X-42" value="+ LeaveRoom(): void" style="text;strokeColor=none;fillColor=none;align=left;verticalAlign=top;spacingLeft=4;spacingRight=4;overflow=hidden;rotatable=0;points=[[0,0.5],[1,0.5]];portConstraint=eastwest;whiteSpace=wrap;html=1;" vertex="1" parent="95qn9z1AVTuWu9RTup_X-32">
          <mxGeometry y="216" width="425" height="26" as="geometry" />
        </mxCell>
        <mxCell id="95qn9z1AVTuWu9RTup_X-46" value="&lt;p style=&quot;margin:0px;margin-top:6px;text-align:center;&quot;&gt;&lt;b&gt;sPacketHeader&lt;/b&gt;&lt;/p&gt;&lt;hr&gt;&lt;p style=&quot;margin:0px;margin-left:8px;&quot;&gt;+ uint32 packetSize&lt;br&gt;+ uint32 msgType&lt;/p&gt;" style="align=left;overflow=fill;html=1;dropTarget=0;whiteSpace=wrap;" vertex="1" parent="WIyWlLk6GJQsqaUBKTNV-1">
          <mxGeometry x="30" y="-80" width="180" height="80" as="geometry" />
        </mxCell>
        <mxCell id="95qn9z1AVTuWu9RTup_X-47" value="" style="shape=component;jettyWidth=8;jettyHeight=4;" vertex="1" parent="95qn9z1AVTuWu9RTup_X-46">
          <mxGeometry x="1" width="20" height="20" relative="1" as="geometry">
            <mxPoint x="-24" y="4" as="offset" />
          </mxGeometry>
        </mxCell>
        <mxCell id="95qn9z1AVTuWu9RTup_X-48" value="&lt;p style=&quot;margin:0px;margin-top:6px;text-align:center;&quot;&gt;&lt;b&gt;sPacketData&lt;/b&gt;&lt;/p&gt;&lt;hr&gt;&lt;p style=&quot;margin:0px;margin-left:8px;&quot;&gt;+ sPacketHeader header&lt;br&gt;+ uint32 msgLength&lt;/p&gt;&lt;p style=&quot;margin:0px;margin-left:8px;&quot;&gt;+ string msg&lt;/p&gt;" style="align=left;overflow=fill;html=1;dropTarget=0;whiteSpace=wrap;" vertex="1" parent="WIyWlLk6GJQsqaUBKTNV-1">
          <mxGeometry x="30" y="100" width="180" height="80" as="geometry" />
        </mxCell>
        <mxCell id="95qn9z1AVTuWu9RTup_X-49" value="" style="shape=component;jettyWidth=8;jettyHeight=4;" vertex="1" parent="95qn9z1AVTuWu9RTup_X-48">
          <mxGeometry x="1" width="20" height="20" relative="1" as="geometry">
            <mxPoint x="-24" y="4" as="offset" />
          </mxGeometry>
        </mxCell>
        <mxCell id="95qn9z1AVTuWu9RTup_X-57" value="Use" style="endArrow=open;endSize=12;dashed=1;html=1;rounded=0;edgeStyle=orthogonalEdgeStyle;" edge="1" parent="WIyWlLk6GJQsqaUBKTNV-1" source="95qn9z1AVTuWu9RTup_X-25" target="95qn9z1AVTuWu9RTup_X-48">
          <mxGeometry x="0.4864" width="160" relative="1" as="geometry">
            <mxPoint x="206" y="293" as="sourcePoint" />
            <mxPoint x="117" y="190" as="targetPoint" />
            <Array as="points">
              <mxPoint x="180" y="160" />
              <mxPoint x="180" y="160" />
            </Array>
            <mxPoint as="offset" />
          </mxGeometry>
        </mxCell>
        <mxCell id="95qn9z1AVTuWu9RTup_X-58" value="Use" style="endArrow=open;endSize=12;dashed=1;html=1;rounded=0;edgeStyle=orthogonalEdgeStyle;" edge="1" parent="WIyWlLk6GJQsqaUBKTNV-1" source="95qn9z1AVTuWu9RTup_X-44" target="95qn9z1AVTuWu9RTup_X-8">
          <mxGeometry width="160" relative="1" as="geometry">
            <mxPoint x="160" y="410" as="sourcePoint" />
            <mxPoint x="320" y="410" as="targetPoint" />
          </mxGeometry>
        </mxCell>
        <mxCell id="95qn9z1AVTuWu9RTup_X-61" value="ChatServer" style="swimlane;fontStyle=1;align=center;verticalAlign=top;childLayout=stackLayout;horizontal=1;startSize=26;horizontalStack=0;resizeParent=1;resizeParentMax=0;resizeLast=0;collapsible=1;marginBottom=0;whiteSpace=wrap;html=1;" vertex="1" parent="WIyWlLk6GJQsqaUBKTNV-1">
          <mxGeometry x="232.5" y="1000" width="465" height="268" as="geometry" />
        </mxCell>
        <mxCell id="95qn9z1AVTuWu9RTup_X-76" value="- map&amp;lt;uint32, map&amp;lt;string, SOCKET&amp;gt;&amp;gt; m_mapRoomClients" style="text;strokeColor=none;fillColor=none;align=left;verticalAlign=top;spacingLeft=4;spacingRight=4;overflow=hidden;rotatable=0;points=[[0,0.5],[1,0.5]];portConstraint=eastwest;whiteSpace=wrap;html=1;" vertex="1" parent="95qn9z1AVTuWu9RTup_X-61">
          <mxGeometry y="26" width="465" height="26" as="geometry" />
        </mxCell>
        <mxCell id="95qn9z1AVTuWu9RTup_X-83" value="- TCPServer* pTCP" style="text;strokeColor=none;fillColor=none;align=left;verticalAlign=top;spacingLeft=4;spacingRight=4;overflow=hidden;rotatable=0;points=[[0,0.5],[1,0.5]];portConstraint=eastwest;whiteSpace=wrap;html=1;" vertex="1" parent="95qn9z1AVTuWu9RTup_X-61">
          <mxGeometry y="52" width="465" height="26" as="geometry" />
        </mxCell>
        <mxCell id="95qn9z1AVTuWu9RTup_X-63" value="" style="line;strokeWidth=1;fillColor=none;align=left;verticalAlign=middle;spacingTop=-1;spacingLeft=3;spacingRight=3;rotatable=0;labelPosition=right;points=[];portConstraint=eastwest;strokeColor=inherit;" vertex="1" parent="95qn9z1AVTuWu9RTup_X-61">
          <mxGeometry y="78" width="465" height="8" as="geometry" />
        </mxCell>
        <mxCell id="95qn9z1AVTuWu9RTup_X-78" value="+ Initialize(const char* host, const char* port): bool" style="text;strokeColor=none;fillColor=none;align=left;verticalAlign=top;spacingLeft=4;spacingRight=4;overflow=hidden;rotatable=0;points=[[0,0.5],[1,0.5]];portConstraint=eastwest;whiteSpace=wrap;html=1;" vertex="1" parent="95qn9z1AVTuWu9RTup_X-61">
          <mxGeometry y="86" width="465" height="26" as="geometry" />
        </mxCell>
        <mxCell id="95qn9z1AVTuWu9RTup_X-79" value="+ Destroy(): void" style="text;strokeColor=none;fillColor=none;align=left;verticalAlign=top;spacingLeft=4;spacingRight=4;overflow=hidden;rotatable=0;points=[[0,0.5],[1,0.5]];portConstraint=eastwest;whiteSpace=wrap;html=1;" vertex="1" parent="95qn9z1AVTuWu9RTup_X-61">
          <mxGeometry y="112" width="465" height="26" as="geometry" />
        </mxCell>
        <mxCell id="95qn9z1AVTuWu9RTup_X-108" value="+ IsRoomCreated(uint32 idRoom): bool" style="text;strokeColor=none;fillColor=none;align=left;verticalAlign=top;spacingLeft=4;spacingRight=4;overflow=hidden;rotatable=0;points=[[0,0.5],[1,0.5]];portConstraint=eastwest;whiteSpace=wrap;html=1;" vertex="1" parent="95qn9z1AVTuWu9RTup_X-61">
          <mxGeometry y="138" width="465" height="26" as="geometry" />
        </mxCell>
        <mxCell id="95qn9z1AVTuWu9RTup_X-107" value="+ IsUsernameAvailable(uint32 idRoom, const string&amp;amp; username): bool" style="text;strokeColor=none;fillColor=none;align=left;verticalAlign=top;spacingLeft=4;spacingRight=4;overflow=hidden;rotatable=0;points=[[0,0.5],[1,0.5]];portConstraint=eastwest;whiteSpace=wrap;html=1;" vertex="1" parent="95qn9z1AVTuWu9RTup_X-61">
          <mxGeometry y="164" width="465" height="26" as="geometry" />
        </mxCell>
        <mxCell id="95qn9z1AVTuWu9RTup_X-72" value="+ AddClientToRoom(idRoom, string username, SOCKET&amp;amp; clientSocket): void" style="text;strokeColor=none;fillColor=none;align=left;verticalAlign=top;spacingLeft=4;spacingRight=4;overflow=hidden;rotatable=0;points=[[0,0.5],[1,0.5]];portConstraint=eastwest;whiteSpace=wrap;html=1;" vertex="1" parent="95qn9z1AVTuWu9RTup_X-61">
          <mxGeometry y="190" width="465" height="26" as="geometry" />
        </mxCell>
        <mxCell id="95qn9z1AVTuWu9RTup_X-73" value="+ RemoveClientFromRoom(idRoom, string&amp;amp; username): void" style="text;strokeColor=none;fillColor=none;align=left;verticalAlign=top;spacingLeft=4;spacingRight=4;overflow=hidden;rotatable=0;points=[[0,0.5],[1,0.5]];portConstraint=eastwest;whiteSpace=wrap;html=1;" vertex="1" parent="95qn9z1AVTuWu9RTup_X-61">
          <mxGeometry y="216" width="465" height="26" as="geometry" />
        </mxCell>
        <mxCell id="95qn9z1AVTuWu9RTup_X-106" value="+ BroadcastToRoom(uint32 idRoom, const std::string&amp;amp; msg): void" style="text;strokeColor=none;fillColor=none;align=left;verticalAlign=top;spacingLeft=4;spacingRight=4;overflow=hidden;rotatable=0;points=[[0,0.5],[1,0.5]];portConstraint=eastwest;whiteSpace=wrap;html=1;" vertex="1" parent="95qn9z1AVTuWu9RTup_X-61">
          <mxGeometry y="242" width="465" height="26" as="geometry" />
        </mxCell>
        <mxCell id="95qn9z1AVTuWu9RTup_X-65" value="Use" style="endArrow=block;endSize=16;endFill=0;html=1;rounded=0;edgeStyle=orthogonalEdgeStyle;dashed=1;" edge="1" parent="WIyWlLk6GJQsqaUBKTNV-1" source="95qn9z1AVTuWu9RTup_X-61" target="95qn9z1AVTuWu9RTup_X-87">
          <mxGeometry width="160" relative="1" as="geometry">
            <mxPoint x="160" y="610" as="sourcePoint" />
            <mxPoint x="320" y="610" as="targetPoint" />
          </mxGeometry>
        </mxCell>
        <mxCell id="95qn9z1AVTuWu9RTup_X-71" value="Use" style="endArrow=open;endSize=12;dashed=1;html=1;rounded=0;edgeStyle=orthogonalEdgeStyle;" edge="1" parent="WIyWlLk6GJQsqaUBKTNV-1" source="95qn9z1AVTuWu9RTup_X-48" target="95qn9z1AVTuWu9RTup_X-46">
          <mxGeometry width="160" relative="1" as="geometry">
            <mxPoint x="-400" y="150" as="sourcePoint" />
            <mxPoint x="-100" y="40" as="targetPoint" />
          </mxGeometry>
        </mxCell>
        <mxCell id="95qn9z1AVTuWu9RTup_X-87" value="TCPServer" style="swimlane;fontStyle=1;align=center;verticalAlign=top;childLayout=stackLayout;horizontal=1;startSize=26;horizontalStack=0;resizeParent=1;resizeParentMax=0;resizeLast=0;collapsible=1;marginBottom=0;whiteSpace=wrap;html=1;" vertex="1" parent="WIyWlLk6GJQsqaUBKTNV-1">
          <mxGeometry x="250" y="620" width="430" height="268" as="geometry" />
        </mxCell>
        <mxCell id="95qn9z1AVTuWu9RTup_X-88" value="- FD_SET m_activeSockets" style="text;strokeColor=none;fillColor=none;align=left;verticalAlign=top;spacingLeft=4;spacingRight=4;overflow=hidden;rotatable=0;points=[[0,0.5],[1,0.5]];portConstraint=eastwest;whiteSpace=wrap;html=1;" vertex="1" parent="95qn9z1AVTuWu9RTup_X-87">
          <mxGeometry y="26" width="430" height="26" as="geometry" />
        </mxCell>
        <mxCell id="95qn9z1AVTuWu9RTup_X-89" value="- FD_SET m_socketsToRead" style="text;strokeColor=none;fillColor=none;align=left;verticalAlign=top;spacingLeft=4;spacingRight=4;overflow=hidden;rotatable=0;points=[[0,0.5],[1,0.5]];portConstraint=eastwest;whiteSpace=wrap;html=1;" vertex="1" parent="95qn9z1AVTuWu9RTup_X-87">
          <mxGeometry y="52" width="430" height="26" as="geometry" />
        </mxCell>
        <mxCell id="95qn9z1AVTuWu9RTup_X-90" value="- timeval m_tv" style="text;strokeColor=none;fillColor=none;align=left;verticalAlign=top;spacingLeft=4;spacingRight=4;overflow=hidden;rotatable=0;points=[[0,0.5],[1,0.5]];portConstraint=eastwest;whiteSpace=wrap;html=1;" vertex="1" parent="95qn9z1AVTuWu9RTup_X-87">
          <mxGeometry y="78" width="430" height="26" as="geometry" />
        </mxCell>
        <mxCell id="95qn9z1AVTuWu9RTup_X-93" value="" style="line;strokeWidth=1;fillColor=none;align=left;verticalAlign=middle;spacingTop=-1;spacingLeft=3;spacingRight=3;rotatable=0;labelPosition=right;points=[];portConstraint=eastwest;strokeColor=inherit;" vertex="1" parent="95qn9z1AVTuWu9RTup_X-87">
          <mxGeometry y="104" width="430" height="8" as="geometry" />
        </mxCell>
        <mxCell id="95qn9z1AVTuWu9RTup_X-94" value="+ Initialize(const char* host, const char* port): bool" style="text;strokeColor=none;fillColor=none;align=left;verticalAlign=top;spacingLeft=4;spacingRight=4;overflow=hidden;rotatable=0;points=[[0,0.5],[1,0.5]];portConstraint=eastwest;whiteSpace=wrap;html=1;" vertex="1" parent="95qn9z1AVTuWu9RTup_X-87">
          <mxGeometry y="112" width="430" height="26" as="geometry" />
        </mxCell>
        <mxCell id="95qn9z1AVTuWu9RTup_X-95" value="+ Destroy(): void" style="text;strokeColor=none;fillColor=none;align=left;verticalAlign=top;spacingLeft=4;spacingRight=4;overflow=hidden;rotatable=0;points=[[0,0.5],[1,0.5]];portConstraint=eastwest;whiteSpace=wrap;html=1;" vertex="1" parent="95qn9z1AVTuWu9RTup_X-87">
          <mxGeometry y="138" width="430" height="26" as="geometry" />
        </mxCell>
        <mxCell id="95qn9z1AVTuWu9RTup_X-104" value="+ GetActiveSockets(): FD_SET&amp;amp;" style="text;strokeColor=none;fillColor=none;align=left;verticalAlign=top;spacingLeft=4;spacingRight=4;overflow=hidden;rotatable=0;points=[[0,0.5],[1,0.5]];portConstraint=eastwest;whiteSpace=wrap;html=1;" vertex="1" parent="95qn9z1AVTuWu9RTup_X-87">
          <mxGeometry y="164" width="430" height="26" as="geometry" />
        </mxCell>
        <mxCell id="95qn9z1AVTuWu9RTup_X-103" value="+ StartListening(): void" style="text;strokeColor=none;fillColor=none;align=left;verticalAlign=top;spacingLeft=4;spacingRight=4;overflow=hidden;rotatable=0;points=[[0,0.5],[1,0.5]];portConstraint=eastwest;whiteSpace=wrap;html=1;" vertex="1" parent="95qn9z1AVTuWu9RTup_X-87">
          <mxGeometry y="190" width="430" height="26" as="geometry" />
        </mxCell>
        <mxCell id="95qn9z1AVTuWu9RTup_X-96" value="+ UpdateSocketsToRead(): void" style="text;strokeColor=none;fillColor=none;align=left;verticalAlign=top;spacingLeft=4;spacingRight=4;overflow=hidden;rotatable=0;points=[[0,0.5],[1,0.5]];portConstraint=eastwest;whiteSpace=wrap;html=1;" vertex="1" parent="95qn9z1AVTuWu9RTup_X-87">
          <mxGeometry y="216" width="430" height="26" as="geometry" />
        </mxCell>
        <mxCell id="95qn9z1AVTuWu9RTup_X-97" value="+ AddSocket(): void" style="text;strokeColor=none;fillColor=none;align=left;verticalAlign=top;spacingLeft=4;spacingRight=4;overflow=hidden;rotatable=0;points=[[0,0.5],[1,0.5]];portConstraint=eastwest;whiteSpace=wrap;html=1;" vertex="1" parent="95qn9z1AVTuWu9RTup_X-87">
          <mxGeometry y="242" width="430" height="26" as="geometry" />
        </mxCell>
        <mxCell id="95qn9z1AVTuWu9RTup_X-102" value="Extends" style="endArrow=block;endSize=16;endFill=0;html=1;rounded=0;edgeStyle=orthogonalEdgeStyle;" edge="1" parent="WIyWlLk6GJQsqaUBKTNV-1" source="95qn9z1AVTuWu9RTup_X-87" target="95qn9z1AVTuWu9RTup_X-25">
          <mxGeometry width="160" relative="1" as="geometry">
            <mxPoint x="-100" y="500" as="sourcePoint" />
            <mxPoint x="60" y="500" as="targetPoint" />
          </mxGeometry>
        </mxCell>
        <mxCell id="95qn9z1AVTuWu9RTup_X-109" value="TCPClient" style="swimlane;fontStyle=1;align=center;verticalAlign=top;childLayout=stackLayout;horizontal=1;startSize=26;horizontalStack=0;resizeParent=1;resizeParentMax=0;resizeLast=0;collapsible=1;marginBottom=0;whiteSpace=wrap;html=1;" vertex="1" parent="WIyWlLk6GJQsqaUBKTNV-1">
          <mxGeometry x="-420" y="620" width="290" height="112" as="geometry" />
        </mxCell>
        <mxCell id="95qn9z1AVTuWu9RTup_X-113" value="" style="line;strokeWidth=1;fillColor=none;align=left;verticalAlign=middle;spacingTop=-1;spacingLeft=3;spacingRight=3;rotatable=0;labelPosition=right;points=[];portConstraint=eastwest;strokeColor=inherit;" vertex="1" parent="95qn9z1AVTuWu9RTup_X-109">
          <mxGeometry y="26" width="290" height="8" as="geometry" />
        </mxCell>
        <mxCell id="95qn9z1AVTuWu9RTup_X-114" value="+ Initialize(const char* host, const char* port): bool" style="text;strokeColor=none;fillColor=none;align=left;verticalAlign=top;spacingLeft=4;spacingRight=4;overflow=hidden;rotatable=0;points=[[0,0.5],[1,0.5]];portConstraint=eastwest;whiteSpace=wrap;html=1;" vertex="1" parent="95qn9z1AVTuWu9RTup_X-109">
          <mxGeometry y="34" width="290" height="26" as="geometry" />
        </mxCell>
        <mxCell id="95qn9z1AVTuWu9RTup_X-115" value="+ Destroy(): void" style="text;strokeColor=none;fillColor=none;align=left;verticalAlign=top;spacingLeft=4;spacingRight=4;overflow=hidden;rotatable=0;points=[[0,0.5],[1,0.5]];portConstraint=eastwest;whiteSpace=wrap;html=1;" vertex="1" parent="95qn9z1AVTuWu9RTup_X-109">
          <mxGeometry y="60" width="290" height="26" as="geometry" />
        </mxCell>
        <mxCell id="95qn9z1AVTuWu9RTup_X-117" value="+ Connect(): void" style="text;strokeColor=none;fillColor=none;align=left;verticalAlign=top;spacingLeft=4;spacingRight=4;overflow=hidden;rotatable=0;points=[[0,0.5],[1,0.5]];portConstraint=eastwest;whiteSpace=wrap;html=1;" vertex="1" parent="95qn9z1AVTuWu9RTup_X-109">
          <mxGeometry y="86" width="290" height="26" as="geometry" />
        </mxCell>
        <mxCell id="95qn9z1AVTuWu9RTup_X-121" value="Extends" style="endArrow=block;endSize=16;endFill=0;html=1;rounded=0;edgeStyle=orthogonalEdgeStyle;" edge="1" parent="WIyWlLk6GJQsqaUBKTNV-1" source="95qn9z1AVTuWu9RTup_X-109" target="95qn9z1AVTuWu9RTup_X-25">
          <mxGeometry width="160" relative="1" as="geometry">
            <mxPoint x="475" y="620" as="sourcePoint" />
            <mxPoint x="130" y="549" as="targetPoint" />
            <Array as="points">
              <mxPoint x="-275" y="580" />
              <mxPoint x="120" y="580" />
            </Array>
          </mxGeometry>
        </mxCell>
        <mxCell id="95qn9z1AVTuWu9RTup_X-122" value="Use" style="endArrow=block;endSize=16;endFill=0;html=1;rounded=0;edgeStyle=orthogonalEdgeStyle;dashed=1;" edge="1" parent="WIyWlLk6GJQsqaUBKTNV-1" source="95qn9z1AVTuWu9RTup_X-32" target="95qn9z1AVTuWu9RTup_X-109">
          <mxGeometry width="160" relative="1" as="geometry">
            <mxPoint x="475" y="1010" as="sourcePoint" />
            <mxPoint x="475" y="898" as="targetPoint" />
          </mxGeometry>
        </mxCell>
      </root>
    </mxGraphModel>
  </diagram>
</mxfile>
